<svg width="250" height="300" viewBox="0 0 225 225" fill="none" xmlns="http://www.w3.org/2000/svg">
<path d="M0 40.625C0 29.8506 4.28012 19.5175 11.8988 11.8988C19.5175 4.28012 29.8506 0 40.625 0H115.625C126.399 0 136.733 4.28012 144.351 11.8988C151.97 19.5175 156.25 29.8506 156.25 40.625C156.25 43.1114 155.262 45.496 153.504 47.2541C151.746 49.0123 149.361 50 146.875 50C144.389 50 142.004 49.0123 140.246 47.2541C138.488 45.496 137.5 43.1114 137.5 40.625C137.5 34.8234 135.195 29.2594 131.093 25.157C126.991 21.0547 121.427 18.75 115.625 18.75H40.625C34.8234 18.75 29.2594 21.0547 25.157 25.157C21.0547 29.2594 18.75 34.8234 18.75 40.625V115.625C18.75 127.7 28.55 137.5 40.625 137.5H113.8C116.063 129.514 121.138 122.616 128.088 118.079C135.039 113.542 143.396 111.672 151.617 112.815C159.839 113.957 167.369 118.034 172.82 124.294C178.27 130.555 181.272 138.575 181.272 146.875C181.272 155.175 178.27 163.195 172.82 169.456C167.369 175.716 159.839 179.793 151.617 180.935C143.396 182.078 135.039 180.208 128.088 175.671C121.138 171.134 116.063 164.236 113.8 156.25H40.625C29.8506 156.25 19.5175 151.97 11.8988 144.351C4.28012 136.733 0 126.399 0 115.625V40.625ZM184.375 87.5C196.45 87.5 206.25 97.3 206.25 109.375V184.375C206.25 190.177 203.945 195.741 199.843 199.843C195.741 203.945 190.177 206.25 184.375 206.25H109.375C103.573 206.25 98.0094 203.945 93.907 199.843C89.8047 195.741 87.5 190.177 87.5 184.375C87.5 181.889 86.5123 179.504 84.7541 177.746C82.996 175.988 80.6114 175 78.125 175C75.6386 175 73.254 175.988 71.4959 177.746C69.7377 179.504 68.75 181.889 68.75 184.375C68.75 195.149 73.0301 205.483 80.6488 213.101C88.2675 220.72 98.6006 225 109.375 225H184.375C195.149 225 205.483 220.72 213.101 213.101C220.72 205.483 225 195.149 225 184.375V109.375C225 98.6006 220.72 88.2675 213.101 80.6488C205.483 73.0301 195.149 68.75 184.375 68.75H111.2C108.937 60.7641 103.862 53.8662 96.9115 49.3293C89.9609 44.7923 81.6039 42.9224 73.3826 44.0647C65.1613 45.207 57.6306 49.2844 52.1802 55.5445C46.7298 61.8045 43.7276 69.8247 43.7276 78.125C43.7276 86.4253 46.7298 94.4455 52.1802 100.706C57.6306 106.966 65.1613 111.043 73.3826 112.185C81.6039 113.328 89.9609 111.458 96.9115 106.921C103.862 102.384 108.937 95.4859 111.2 87.5H184.375Z" fill="#000000"/>
</svg>
